<svg width="70" height="70" viewBox="0 0 70 70" fill="none" xmlns="http://www.w3.org/2000/svg">
<path d="M0 35C0 15.67 15.67 0 35 0C54.33 0 70 15.67 70 35C70 54.33 54.33 70 35 70C15.67 70 0 54.33 0 35Z" fill="#F38195"/>
<path d="M0 35C0 15.67 15.67 0 35 0C54.33 0 70 15.67 70 35C70 54.33 54.33 70 35 70C15.67 70 0 54.33 0 35Z" fill="#F38195"/>
<path d="M33.375 31H29.625V36.625H24V40.375H29.625V46H33.375V40.375H39V36.625H33.375V31Z" fill="white"/>
<path d="M19.75 53H42.25C44.3181 53 46 51.3742 46 49.375V27.625C46 25.6258 44.3181 24 42.25 24H19.75C17.6819 24 16 25.6258 16 27.625V49.375C16 51.3742 17.6819 53 19.75 53ZM19.75 27.625H42.25L42.2538 49.375H19.75V27.625Z" fill="white"/>
<path d="M50.1429 17H27V20.5714H50.1429V42H54V20.5714C54 18.6018 52.2701 17 50.1429 17Z" fill="white"/>
</svg>
