<svg width="30" height="30" viewBox="0 0 30 30" fill="none" xmlns="http://www.w3.org/2000/svg">
<path d="M30 15C30 23.2843 23.2843 30 15 30C6.71573 30 0 23.2843 0 15C0 6.71573 6.71573 0 15 0C23.2843 0 30 6.71573 30 15Z" fill="#F38195"/>
<path d="M15 6C9.486 6 5 9.589 5 14C5 16.908 6.898 19.515 10 20.934V26L15.34 21.995C20.697 21.852 25 18.32 25 14C25 9.589 20.514 6 15 6ZM15 20H14.667L12 22V19.583L11.359 19.336C8.67 18.301 7 16.256 7 14C7 10.691 10.589 8 15 8C19.411 8 23 10.691 23 14C23 17.309 19.411 20 15 20Z" fill="white"/>
<path d="M10 11H20V13H10V11ZM10 15H17V17H10V15Z" fill="white"/>
</svg>
