<svg width="40" height="40" viewBox="0 0 40 40" fill="none" xmlns="http://www.w3.org/2000/svg">
<path fill-rule="evenodd" clip-rule="evenodd" d="M20 0C8.9543 0 0 8.9543 0 20C0 31.0457 8.9543 40 20 40C31.0457 40 40 31.0457 40 20C40 8.9543 31.0457 0 20 0ZM15.6028 9.39779C16.7406 9.34602 17.1041 9.33335 20.001 9.33335H19.9977C22.8955 9.33335 23.2577 9.34602 24.3955 9.39779C25.5311 9.44979 26.3067 9.62957 26.9867 9.89336C27.6889 10.1656 28.2822 10.53 28.8756 11.1234C29.4689 11.7163 29.8334 12.3114 30.1067 13.0129C30.3689 13.6912 30.5489 14.4663 30.6023 15.6019C30.6534 16.7396 30.6667 17.1032 30.6667 20.0001C30.6667 22.897 30.6534 23.2597 30.6023 24.3975C30.5489 25.5326 30.3689 26.308 30.1067 26.9864C29.8334 27.6878 29.4689 28.2829 28.8756 28.8758C28.2829 29.4691 27.6887 29.8345 26.9873 30.1069C26.3087 30.3707 25.5327 30.5505 24.3971 30.6025C23.2593 30.6542 22.8968 30.6669 19.9997 30.6669C17.103 30.6669 16.7397 30.6542 15.6019 30.6025C14.4665 30.5505 13.6912 30.3707 13.0125 30.1069C12.3114 29.8345 11.7163 29.4691 11.1236 28.8758C10.5305 28.2829 10.166 27.6878 9.89338 26.9862C9.62982 26.308 9.45004 25.5329 9.39782 24.3973C9.34626 23.2595 9.33337 22.897 9.33337 20.0001C9.33337 17.1032 9.34671 16.7394 9.3976 15.6016C9.44871 14.4665 9.62871 13.6912 9.89316 13.0127C10.1665 12.3114 10.5309 11.7163 11.1243 11.1234C11.7172 10.5303 12.3123 10.1658 13.0139 9.89336C13.6921 9.62957 14.4672 9.44979 15.6028 9.39779Z" fill="#F38195"/>
<path fill-rule="evenodd" clip-rule="evenodd" d="M19.044 11.2556C19.2298 11.2553 19.4297 11.2554 19.6454 11.2555L20.0009 11.2556C22.849 11.2556 23.1865 11.2658 24.3112 11.3169C25.3512 11.3645 25.9157 11.5383 26.2917 11.6843C26.7895 11.8776 27.1444 12.1087 27.5175 12.4821C27.8908 12.8554 28.1219 13.211 28.3157 13.7087C28.4617 14.0843 28.6357 14.6487 28.683 15.6888C28.7341 16.8132 28.7453 17.151 28.7453 19.9977C28.7453 22.8444 28.7341 23.1822 28.683 24.3066C28.6355 25.3466 28.4617 25.9111 28.3157 26.2866C28.1224 26.7844 27.8908 27.1389 27.5175 27.512C27.1441 27.8853 26.7897 28.1164 26.2917 28.3098C25.9161 28.4564 25.3512 28.6298 24.3112 28.6773C23.1868 28.7284 22.849 28.7396 20.0009 28.7396C17.1527 28.7396 16.8151 28.7284 15.6907 28.6773C14.6507 28.6293 14.0862 28.4556 13.71 28.3096C13.2122 28.1162 12.8566 27.8851 12.4833 27.5118C12.11 27.1384 11.8789 26.7838 11.6851 26.2858C11.5391 25.9102 11.3651 25.3457 11.3177 24.3057C11.2666 23.1813 11.2564 22.8435 11.2564 19.995C11.2564 17.1465 11.2666 16.8105 11.3177 15.6861C11.3653 14.6461 11.5391 14.0816 11.6851 13.7056C11.8784 13.2078 12.11 12.8523 12.4833 12.4789C12.8566 12.1056 13.2122 11.8745 13.71 11.6807C14.086 11.534 14.6507 11.3607 15.6907 11.3129C16.6747 11.2685 17.056 11.2552 19.044 11.2529V11.2556ZM25.6949 13.0268C24.9882 13.0268 24.4149 13.5994 24.4149 14.3063C24.4149 15.013 24.9882 15.5863 25.6949 15.5863C26.4015 15.5863 26.9749 15.013 26.9749 14.3063C26.9749 13.5997 26.4015 13.0263 25.6949 13.0263V13.0268ZM14.5231 20.0001C14.5231 16.9751 16.9756 14.5224 20.0007 14.5223C23.0258 14.5223 25.4779 16.975 25.4779 20.0001C25.4779 23.0253 23.0261 25.4769 20.0009 25.4769C16.9758 25.4769 14.5231 23.0253 14.5231 20.0001Z" fill="#F38195"/>
<path d="M20.001 16.4446C21.9646 16.4446 23.5566 18.0364 23.5566 20.0002C23.5566 21.9637 21.9646 23.5558 20.001 23.5558C18.0372 23.5558 16.4454 21.9637 16.4454 20.0002C16.4454 18.0364 18.0372 16.4446 20.001 16.4446V16.4446Z" fill="#F38195"/>
</svg>
