<svg width="30" height="30" viewBox="0 0 30 30" fill="none" xmlns="http://www.w3.org/2000/svg">
<path d="M30 15C30 23.2843 23.2843 30 15 30C6.71573 30 0 23.2843 0 15C0 6.71573 6.71573 0 15 0C23.2843 0 30 6.71573 30 15Z" fill="#F38195"/>
<path d="M14.9731 8.558C13.8835 7.5561 12.4573 7.00005 10.9771 7C10.1937 7.00082 9.4181 7.15656 8.69506 7.45827C7.97203 7.75998 7.31579 8.20169 6.76413 8.758C4.41113 11.121 4.41213 14.817 6.76613 17.17L14.0981 24.502C14.2681 24.801 14.5961 24.994 14.9731 24.994C15.1279 24.9925 15.2802 24.9547 15.4178 24.8837C15.5553 24.8126 15.6743 24.7103 15.7651 24.585L23.1801 17.17C25.5341 14.816 25.5341 11.121 23.1781 8.754C22.6267 8.19872 21.971 7.7579 21.2487 7.45688C20.5264 7.15587 19.7517 7.0006 18.9691 7C17.489 7.00024 16.0628 7.55627 14.9731 8.558V8.558ZM21.7641 10.168C23.3271 11.739 23.3281 14.193 21.7661 15.756L14.9731 22.549L8.18012 15.756C6.61812 14.193 6.61913 11.739 8.17813 10.172C8.93813 9.416 9.93213 9 10.9771 9C12.0221 9 13.0121 9.416 13.7661 10.17L14.2661 10.67C14.3589 10.7629 14.4691 10.8367 14.5904 10.887C14.7117 10.9373 14.8418 10.9632 14.9731 10.9632C15.1045 10.9632 15.2345 10.9373 15.3558 10.887C15.4771 10.8367 15.5873 10.7629 15.6801 10.67L16.1801 10.17C17.6921 8.661 20.2541 8.665 21.7641 10.168V10.168Z" fill="white"/>
</svg>
