<svg width="40" height="40" viewBox="0 0 40 40" fill="none" xmlns="http://www.w3.org/2000/svg">
<path d="M0 20C0 8.9543 8.9543 0 20 0C31.0457 0 40 8.9543 40 20C40 31.0457 31.0457 40 20 40C8.9543 40 0 31.0457 0 20Z" fill="#F38195"/>
<g clip-path="url(#clip0_33_12)">
<path d="M14.9426 28.25H10.7703V15.3979H14.9426V28.25ZM12.8539 13.6448C11.5199 13.6448 10.4375 12.5874 10.4375 11.3114C10.4375 10.6984 10.6921 10.1105 11.1453 9.67699C11.5984 9.24352 12.2131 9 12.8539 9C13.4948 9 14.1094 9.24352 14.5626 9.67699C15.0158 10.1105 15.2704 10.6984 15.2704 11.3114C15.2704 12.5874 14.1879 13.6448 12.8539 13.6448ZM30.5582 28.25H26.3952V21.9937C26.3952 20.5026 26.3636 18.5906 24.226 18.5906C22.0568 18.5906 21.724 20.2104 21.724 21.8865V28.25H17.556V15.3979H21.5573V17.151H21.6155C22.1725 16.1411 23.5331 15.0754 25.5629 15.0754C29.7855 15.0754 30.5618 17.7354 30.5618 21.1901V28.25H30.5582Z" fill="white"/>
</g>
<defs>
<clipPath id="clip0_33_12">
<rect width="23" height="22" fill="white" transform="translate(9 9)"/>
</clipPath>
</defs>
</svg>
