<svg width="40" height="40" viewBox="0 0 40 40" fill="none" xmlns="http://www.w3.org/2000/svg">
<path d="M0 20C0 8.95431 8.95431 0 20 0C31.0457 0 40 8.95431 40 20C40 31.0457 31.0457 40 20 40C8.95431 40 0 31.0457 0 20Z" fill="#F38195"/>
<path d="M0 20C0 8.95431 8.95431 0 20 0C31.0457 0 40 8.95431 40 20C40 31.0457 31.0457 40 20 40C8.95431 40 0 31.0457 0 20Z" fill="#F38195"/>
<path d="M29.5 11H9.5C8.12125 11 7 12.0091 7 13.25V26.75C7 27.9909 8.12125 29 9.5 29H29.5C30.8788 29 32 27.9909 32 26.75V13.25C32 12.0091 30.8788 11 29.5 11ZM29.5 13.25V13.8249L19.5 20.8258L9.5 13.826V13.25H29.5ZM9.5 26.75V16.6745L18.7325 23.1376C18.9514 23.2924 19.2217 23.3765 19.5 23.3765C19.7783 23.3765 20.0486 23.2924 20.2675 23.1376L29.5 16.6745L29.5025 26.75H9.5Z" fill="white"/>
</svg>
