<svg width="40" height="36" viewBox="0 0 40 36" fill="none" xmlns="http://www.w3.org/2000/svg">
<path fill-rule="evenodd" clip-rule="evenodd" d="M23.0745 0.0742188C24.1738 0.373516 24.7724 0.622891 25.4209 1.12359L12.1889 16.5525C15.784 18.8988 19.5798 24.7923 17.5328 29.5849C18.5297 23.0927 11.8396 18.2484 7.87969 17.6019L23.0745 0.0742188ZM12.4881 35.776C14.9859 35.8776 17.4323 35.9258 19.978 35.9258C25.5226 35.9258 30.8639 35.6762 35.8577 35.1773C37.6536 35.0277 39.1536 33.5793 39.4014 31.7317C39.8022 28.3877 40 24.892 40 21.2967C40 17.7014 39.8022 14.2041 39.4014 10.86C39.1536 8.96273 37.6536 7.56406 35.8577 7.36445C33.6592 7.16508 31.4125 7.01367 29.1177 6.86406C29.1177 6.86406 19.629 27.488 18.6302 29.5849C17.2317 32.7312 15.2852 35.0277 12.4881 35.776V35.776ZM16.5833 28.4357C16.5833 22.0948 5.85242 19.3478 2.19164 21.0956L19.1308 1.42281C18.0808 1.17336 16.8826 1.37297 16.9323 1.37297L12.0899 6.81578C9.35727 6.91562 6.70648 7.11508 4.13992 7.36445C2.31305 7.56406 0.825 8.96273 0.594375 10.8601C0.191094 14.2041 0 17.7015 0 21.2968C0 24.8921 0.191094 28.3877 0.594375 31.7317C0.855 33.8305 2.2975 34.8781 4.13984 35.1774C9.19742 36.0272 16.5833 35.2772 16.5833 28.4357V28.4357Z" fill="#F38195"/>
</svg>
