<svg width="40" height="40" viewBox="0 0 40 40" fill="none" xmlns="http://www.w3.org/2000/svg">
<path d="M35 11.25V35C35 36.3261 34.4732 37.5979 33.5355 38.5355C32.5979 39.4732 31.3261 40 30 40H10C8.67392 40 7.40215 39.4732 6.46447 38.5355C5.52678 37.5979 5 36.3261 5 35V5C5 3.67392 5.52678 2.40215 6.46447 1.46447C7.40215 0.526784 8.67392 0 10 0L23.75 0L35 11.25ZM27.5 11.25C26.5054 11.25 25.5516 10.8549 24.8483 10.1517C24.1451 9.44839 23.75 8.49456 23.75 7.5V2.5H10C9.33696 2.5 8.70107 2.76339 8.23223 3.23223C7.76339 3.70107 7.5 4.33696 7.5 5V35C7.5 35.663 7.76339 36.2989 8.23223 36.7678C8.70107 37.2366 9.33696 37.5 10 37.5H30C30.663 37.5 31.2989 37.2366 31.7678 36.7678C32.2366 36.2989 32.5 35.663 32.5 35V11.25H27.5Z" fill="#F38195"/>
<path d="M10 16.25C10 15.9185 10.1317 15.6005 10.3661 15.3661C10.6005 15.1317 10.9185 15 11.25 15H28.75C29.0815 15 29.3995 15.1317 29.6339 15.3661C29.8683 15.6005 30 15.9185 30 16.25V33.75C30 34.0815 29.8683 34.3995 29.6339 34.6339C29.3995 34.8683 29.0815 35 28.75 35H11.25C10.9185 35 10.6005 34.8683 10.3661 34.6339C10.1317 34.3995 10 34.0815 10 33.75V16.25ZM10 8.75C10 8.41848 10.1317 8.10054 10.3661 7.86612C10.6005 7.6317 10.9185 7.5 11.25 7.5H17.5C17.8315 7.5 18.1495 7.6317 18.3839 7.86612C18.6183 8.10054 18.75 8.41848 18.75 8.75C18.75 9.08152 18.6183 9.39946 18.3839 9.63388C18.1495 9.8683 17.8315 10 17.5 10H11.25C10.9185 10 10.6005 9.8683 10.3661 9.63388C10.1317 9.39946 10 9.08152 10 8.75Z" fill="#F38195"/>
</svg>
