<svg width="40" height="40" viewBox="0 0 40 40" fill="none" xmlns="http://www.w3.org/2000/svg">
<path fill-rule="evenodd" clip-rule="evenodd" d="M20 40C31.0457 40 40 31.0457 40 20C40 8.9543 31.0457 0 20 0C8.9543 0 0 8.9543 0 20C0 31.0457 8.9543 40 20 40ZM14.4325 18.4616C14.4325 14.5305 17.6294 11.333 21.5599 11.333C25.4908 11.333 28.6872 14.5306 28.6872 18.4616C28.6872 22.3887 25.4905 25.586 21.5599 25.586C20.0814 25.586 18.7076 25.1314 17.569 24.3583L13.5614 28.3662L13.5589 28.3687C13.308 28.617 12.9759 28.7488 12.6387 28.7488C12.302 28.7488 11.9693 28.6173 11.7181 28.3687L11.7141 28.3647C11.2064 27.8535 11.2064 27.0337 11.7141 26.5226L11.7157 26.521L15.7102 22.5268C14.9062 21.3737 14.4325 19.9713 14.4325 18.4616ZM21.5599 13.9434C19.07 13.9434 17.0429 15.9692 17.0429 18.4616C17.0429 19.6852 17.5352 20.8001 18.3346 21.6169L18.393 21.6513L18.4428 21.7224C19.2551 22.5002 20.352 22.9756 21.5599 22.9756C24.0501 22.9756 26.0768 20.9495 26.0768 18.4616C26.0768 15.9692 24.0497 13.9434 21.5599 13.9434Z" fill="#F38195"/>
</svg>
