<svg width="30" height="30" viewBox="0 0 30 30" fill="none" xmlns="http://www.w3.org/2000/svg">
<path d="M30 15C30 23.2843 23.2843 30 15 30C6.71573 30 0 23.2843 0 15C0 6.71573 6.71573 0 15 0C23.2843 0 30 6.71573 30 15Z" fill="#F38195"/>
<path d="M9.51603 16.3245L8.02603 22.7765C7.97989 22.9718 7.99374 23.1766 8.06577 23.364C8.1378 23.5513 8.26467 23.7126 8.4298 23.8268C8.59492 23.9409 8.79064 24.0026 8.99138 24.0038C9.19212 24.005 9.38855 23.9457 9.55503 23.8335L15 20.2035L20.445 23.8335C20.6154 23.9466 20.8162 24.0048 21.0207 24.0003C21.2251 23.9958 21.4232 23.9288 21.5884 23.8084C21.7536 23.6879 21.878 23.5198 21.9448 23.3265C22.0116 23.1333 22.0176 22.9242 21.962 22.7275L20.133 16.3275L24.669 12.2455C24.8143 12.1147 24.9181 11.9441 24.9674 11.755C25.0168 11.5658 25.0097 11.3663 24.9469 11.1812C24.8841 10.9961 24.7685 10.8334 24.6142 10.7133C24.46 10.5932 24.2739 10.5209 24.079 10.5055L18.378 10.0515L15.911 4.59047C15.8324 4.41462 15.7045 4.2653 15.5428 4.16053C15.3812 4.05575 15.1927 4 15 4C14.8074 4 14.6189 4.05575 14.4572 4.16053C14.2956 4.2653 14.1677 4.41462 14.089 4.59047L11.622 10.0515L5.92103 10.5045C5.72948 10.5196 5.54636 10.5897 5.39358 10.7062C5.2408 10.8227 5.12482 10.9808 5.05952 11.1615C4.99422 11.3422 4.98236 11.5379 5.02537 11.7252C5.06838 11.9124 5.16443 12.0834 5.30203 12.2175L9.51603 16.3245ZM12.369 11.9985C12.5475 11.9844 12.7189 11.9226 12.8653 11.8195C13.0117 11.7164 13.1277 11.5758 13.201 11.4125L15 7.43147L16.799 11.4125C16.8724 11.5758 16.9883 11.7164 17.1347 11.8195C17.2811 11.9226 17.4525 11.9844 17.631 11.9985L21.603 12.3135L18.332 15.2575C18.048 15.5135 17.935 15.9075 18.039 16.2755L19.292 20.6605L15.556 18.1695C15.392 18.0594 15.199 18.0006 15.0015 18.0006C14.804 18.0006 14.611 18.0594 14.447 18.1695L10.543 20.7725L11.593 16.2265C11.6315 16.0593 11.6264 15.885 11.578 15.7204C11.5297 15.5557 11.4398 15.4063 11.317 15.2865L8.27903 12.3245L12.369 11.9985Z" fill="white"/>
</svg>
